<mxfile host="65bd71144e" scale="1" border="1">
    <diagram id="x1a9Tm8UU4rtRqknuctL" name="System Architecture">
        <mxGraphModel dx="1247" dy="546" grid="0" gridSize="10" guides="1" tooltips="1" connect="1" arrows="1" fold="1" page="0" pageScale="1" pageWidth="850" pageHeight="1100" background="#121212" math="0" shadow="0">
            <root>
                <mxCell id="0"/>
                <mxCell id="1" parent="0"/>
                <mxCell id="3" value="Svelte" style="shape=image;verticalLabelPosition=bottom;labelBackgroundColor=default;verticalAlign=top;aspect=fixed;imageAspect=0;image=data:image/png,iVBORw0KGgoAAAANSUhEUgAAAQAAAAEACAMAAABrrFhUAAAABGdBTUEAALGPC/xhBQAAAAFzUkdCAK7OHOkAAAAJcEhZcwAA7DgAAOw4AXEryjgAAAMAUExURUdwTP8+AP8+AP8+AP8+AP8+AP8+AP8+AP8+AP8+AP8+AP8+AP8+AP8+AP8+AP8+AP8+AP8+AP8+AP8+AP8+AP8+AP8+AP8+AP8+AP8+AP8+AP8+AP8+AP8+AP89AP8+AP8+AP8+AP8+AP8+AP8+AP8+AP8+AP8+AP8+AP8+AP8+AP8+AP8+AP8+AP8+AP8+AP8+AP8+AP8+AP8+AP8+AP8+AP8+AP8+AP8+AP8+AP8+AP8+AP8+AP8+AP8+AP8+AP8+AP8+AP8+AP8+AP8+AP8+AP8+AP8+AP8+AP8+AP8+AP8+AP89AP8+AP8+AP8+AP8+AP8+AP8+AP8+AP8+AP8+AP8+AP8/AP8+AP8+AP8+AP8+AP8+AP8+AP8+AP8+AP8+AP8+AP8+AP8+AP8+AP8+AP8+AP8+AP8+AP8+AP8+AP8+AP8+AP8+AP8+AP8+AP8+AP8+AP8+AP8+AP8+AP8+AP8+AP8+AP8+AP////89AP88AP87AP8/Av8+Af/+/v/6+f9ECf/59/9BBf9AA//9/f9LEv9IDf/28/9SG//39f9GC/9CB/9gLf/8/P/7+v///v9JD/9aJf+BWP9XIP9UHf9NFP97Uf/+/f/SxP9rO/9xQ/9OFf+be//c0f/j2v+Ucf9ZI/+9qP+GXv9eK/+oi/9cJ//p4f9iMP9PFv/w7P/v6v/bz/+DXP/KuP9kMv/q5P+wl/9QGP/z8P+fgP/m3v+ihP9zRv/k3P/h1//8+//WyP/x7f/o4P+Sb//Lu//s5v+ymP+mif+qjv+ulP+QbP+WdP+HYf+Rbv/Uxv99U/+ZeP/u6f/t6P9lNP9pOP/ZzP/Htf+dfv/Brf+Naf/Itv/Rwv+zmv+Yd/9tPv+ggf+LZv+6o//Pv/94Tf+KZP+/qv+3oP+1nf91SP/y7v/r5f+Vc/+8pv/08f/Xyv+skf/d0v/MvP/Cr//g1v92Sv96T//y7f/Nvf+2n//Gs/9nNv/f1f/e0//Fsv/p4v9+Vf+lh/9vQf86AP/DsP+ymgvaVF8AAAB4dFJOUwAUoQb8AvUB/vcID/EnGB8W/RLt4AeeCuoLNz/vMhHjzwPn+fgkGg3otvqY7irrHA7EzYtgtE/RBZOqQ906uVzJScan2kYhrNeNWbhBm2V8TDzH3C1vbA5jiXLC0rKBNPOvg7uGvnuky392WC9o3lPVvNRWc1F4EO50de8AABVvSURBVHja7V15QFRVF38gDiMiiiICCe76ue+KmuaK+5ZLlktpLmWWfWU6c+9j2EGGIVZBUAQETFRwQREVtwCXzH1fck3FTEvLz0qzT+0rU7nn3fu4b2bgm9+/+oZ3zjv3nv0cQbDAAgsssMACCyywwAILLLDAAgvMAPXs2syzeoLqb7hWsP1/oryCR6NXBs15s3nXweN71q1bt13bHhOtB04f1mu0g2vF8k57xcpVZg93blunRSW15gXY2LsMaDpwmFu1muWWejuvz96cVkf1EunPsaFGZ+uxbh7lUBLsqozrM0qloYFNq/FTulmVq1uhXuMP+jg10NBDbd97kptreSG/pvvUzioNK9Quk19zKA9i4NrLub5aIwsN281tVK+Mk99kRP/aGvmwGTClZVm+EO269bfXlA6OfadXLasHoaJ781aa0sOm7ofVyyT91WY6afigUtN+Fcre1d9rWgMNN7i0r1q2yLet0qWGhicce48oS0JQedjHag1n1JhSrayQ7zlyskrDHzYd3y4b9LeeUl+jDAbM9jR/8mvN7m2jUQqt5pi7f2A7y9leoyBUXazMmn6rMaPUGkVhM6O1GYe6ug1uqFEa6omNzJV+r/YuGmOgRxXzdPs61HXUGAfvmiEHKr7dR6UxGpp6mRv9DtOdNEaEun9j8/L6O41vxk4FQhiLj/H777+LIsYIsXgGzh5mpPpbdmnBTDwWUdi69I1pRafOrD+StCfrh+XrQrxFTM2EBlPMJnvg8SGr34MwCgnPevDL7f3FvkHaJ/Dxnb9yU/Z3u1cH60RKHtgPM49IWb2REyuxkh+SmJS9w1f7MiJWJuRujEOY6nfqdDMH+quy+j1YF3vs8AofLQk+xXv3hRuojsLrpjeIXD/oyeb3IF100s0ILYygX0+eNtBIgXUTE6v+Wdb2jMK/btemIC0FVl4+GCDNgkpjTRottnprFKP0+/2WEKGlxNUvU6X14kduJvR7er3bgFH6w38q1tJj4aoYP0khmGiycHmjgYwBfxy3LS9Sy4TiwlgpDjQYY5pD8NjvYVP9OGBRtq+WFT4Jp3USx6DvLFOofreuKkabNzVjpVYONmQFSHCgufFj5Q7D6zBKf1jWqoVaefj2mh/MgVbGNoce+z2Mqt/7wPX5WtkoPhIGc6C/UaOkti2bs6r+zH1btaWB/gwsA/YjjOn3jB3AePkZzn8ToS0d9KcMIAcmG00EPIcw+j0ILSv8Vltq5Jz1BkWgl7FCnlNZ/Z6os/cjtRxw9QpoD1gbJTLgOug9R0bVn3hLr+WDQ8sgDtQ3QsbQdtaMdxgvvwW5O7TcsDQYugamKE7/vLF9mf2evUH86Nf6XoOugfccFKZ/dNdKrH7P5WItV2y9BxwCVSdFya856GNWvyclOVLLGUshe6i5kklzj0m1jeD3SGL+b4AIfKxgvtRrRgM21R8r0++Rwl3gHlTwDIzuoWbze9IOLVSEfq1/FiACA5UKC3Tvyer36LVK4XAUWQTGK5QnemUCW8hz3watcsjZSBYBF3dl6P9Eeb9Hf39pRm7uzuw10s9+F0j84806KEG/2wTF/Z5vr8eH+ulEMTBk2dntUqfnPwvIZ2CgEvdfTya/5z8+7Pbd8St+4p/Bb4Rx8IX7EsISL5ILBvjnSKr2oCc/MPER++UXmbwt+J8pMITCj8NMLCDbw6O4WwKVndX0fs+ZqzJiXZfDXwz54gVHQQ6cIJsCNXinSDyHN1TU79mcEF9C2gOnJkAP7U8n6gHVp5wZ0KkV7eUny+9ZcyS0xAQwvrICugR+I18Cc/jS37Iudb4nWYbqu5joXbIwI8Nl6MF9ZAa05xv+sVYy37NqdwhRlMVFOcCja8mWgDXXBMk4FZX0p375NfvnX1kApX1R8F7g2Udkn7gjz9hwy0/o/B4Z+R7f7I1w4j9wJ/B0AlkNtOXoDVRorpjfk5wSJ5HwFZOAx5dkEhnQjmM3ST/pZh+cKcfvKb68XCrbqxG3QfxbR3x8AL+44LyO0p9/0fYIGar/K+mKB424C/iJvFAiA17lVzo6SCVp+J+SEfFesz6UpvYLP4AYsM4IDLCaJvWKsZf82VX/UZLqfxExCXeId+v9TCMw4DWJEDhefpc55OuzBFD9L8A7ODEpe2XJxvUWshboy+sOeKOpBP0HbzB//hUF0QyV0I8945ADSSdKMrAPhxB/pjMvLdALzv/je6tkqH4D1jABYRT8w8mtL4nBTwHkslFO9WI1nWH60/cye/2Sqp/AA0P4kSWbn/+xM+Rf6tGGUxgI7HvAoYdZVf9P0qofKCtOWfVPFkSkkZ2hPnZ8GDAHyoEjv0I24/fzvb/5YY18YBR7atOzGMmKA+Qf68InM1D539D76C7olVD9sBQsy9j/d5nAYvKvDeeUCIHiIHg1k++vv0Wr+iV87tN/FVqsDVA8Lj4XOgBh15lU/4UorOECHHUs+c/kGPkKsB/CpwQWMgJwDEO534rvohHScAJCy5c+FoK8VDJH6/BpnmgJ1ICizBP0qv/7Kwas4QgctWeD9pKB/B84hQNeA0LB6Cy1A5h3bTFGGq5AuntHYwCeNuczbmkg8AaLaQVg/iX5qh8UgjDyP6rH8PEDekA3AJ0KDNobE4Y1SgC6U1qM5FMN4gTYQEvpahpzF2CkMTrq8nGFutkDTvBVOtUfgDUmwFA+V8AwciE8LpJOf/ncPxtlEvI1DV/jYwZNBU7ARUn683mqfjaM4mMFVCDng1BsnqTq/0GO6ufDMk7l0m3ISgBfkciArjnFqPqfts6jQMNjeIuiiEvDiUqD+JyAanXlBasfY9VDFr8HYdGwOP3KhaSMtefOXfqp8My2mIMLonSiXP3RmVN1RGMneQkrrfb+QXrpR2Jg5qJT5w59Xfws1uHjn5+3PSMrPQzL4sFUTlWCVYgNESgkGyx1+oqafqzLjC88VFxiIYjv1cMpy/3YWcCtX8C9FdkOXgIxYKeB8qVxQPiRLZBFGbRjaUwm63XArWOkOzEniBb8Crm+iXQCgAMPFGyQjKnp9x4LZWJBi37c6iJrk4PBUCHA8RBEpfBSc7+gSqlE3DgWzHAQ+tQyAgMOQKU7uTQvi6MuLKGupfLPpjcqanATAIgB9/KBrO8FkaKcIPEoU0D1TsECSg4423FjAPkOACUAqt36S++Hrl/DmFBYmHAlkEaynDi2jLm7EBkQDtwB/jESDMB+8Qmb2fPp+1MoAguOkzhO3ibbATgVcIZ9ikQ4mCW3g0pfmCnJgbY8S2Rbv0okYt1t4EULA6HPH7xHdgdV0EWpi6AF114Zq3ZEBkR9A/V1kus2cMDD4/5a2fD5ORrmQF+uU+XeGEz8Q4ZzkKiSwrUIxcqpJPwnsuExIjZjeDLAk5wax+vBhq6SRQCHZZW6gyryaCjIgXZcB25PIbvDMZAgb15fwqQPpCvV5Ii/1eHlKEgb2ozlWiFrQ7aFwbqw/N0vhgOQvErCknzEJHCOSlue47bJpiCKugsXABc9XweADT/cjdDyQX4MxADVBzy7ZD4i/6FciUqQwmj0lwODsG5Z4R1+/XK3w6FroCs/U1hoQ1YD4sZiqXT4rmV+Tydkin7pSZt8tByxFLoGuI5PaE+25+ISJEthN1zcl3X+fFbSxa2fc+6aPQsdgukcGTCInB1GSRQfNdJ3/nwFOse196ERGuM5DlQD6gNw+FatyRD5ALC2W7zCjwFQhUhAoekYoN26HBCB4RzPwHSoRnaHCTmQAYjA4Db8GDCyhpmKQDJwC9RpyY8B84BaeRyezJ+whfriYj2FwxC0DSueG/6zTg5omNWlRPClPiLvUkr8okVfpZxLlvzl76OM0zruDozLQnG/cP34N1NSDU+GiouiIXXbIYmQcf5p5Quln8CuDxTdOZjHj/6vM1L/HiGNMI4tkDA1k8gS4MQzLDIb6hjS7eY1H8n/+KKAF9yns/vBJ4BmCU5lov+Li42HApyGB1ys3MhNRcH4pdRBWj70zBfk6JjNMJ5BgQ+hTQEobikHN6d4Z3oJ2T8UsB4Knut/JAefuU5Ta/0eGONfcLi05Jc8OuBp7BkKvUKt485cR2mNBZdF4GXflI7+X48QmwhwFhR4+yPAKGpAELwGwHme9O2lIF+/9CC5mAaFQmUI2SFGaRwWhM8khqfh1Edy74GFq+D+wYCTUB0SuV/EiWd+qOrrkpnu0J3yBmatzJCYGC9egzxC8hih+hz3DtWbKj06FIfsWiEjvHt8o1QdrZgGmMT7yXqQ5yQtN5q52Sjg/BbGY/B0apDU74pZQDxpJTkmUKM7P1OYbnqIBscW5jCp/pPhFE0EYtFCWQyozS8o1I92YxD2O/89dfgv4kQ8Xf9gBuQ8kKPjtbnZwq5dGco944oOUfnHQZtS1lEVPaFgyMbYEW0ECejFMjododCiLZL6YPPNpGjKFhpxI3SsNpDHR3C7A2paa5iA0LqYpTsATz4y55s9sTrKcieJxsQbcUQGtOKlBdyYt8Ui7Ld82601JZqwQfl7v3wYTF/0iNLAbPLPYYrbARXflFGpjDAOWxbz4HjyCn3Qs+Lnb9ecWFt0MNiboeARL4LDLUAljhOn+RmtO8srV0dY1IWEHvjqWFLG2pMndxacuRZzOjU4kKn8HQWe3wRfJilkb5BTz5Tk+BD4OniSGUWBAQGBOvHp+kA2FoaulyimKQZmqvZ4g48RNENjImDDjyekKgmTgYminCapNXrVNOQjlL5W2qy8DqwamcrpBDQwzecPPrZJupJw8zHyCeAUE6w31CTkBzz8haaScCt5nKbGns+uoWp1TSD9eEHufip34hzQlfIRn7zAKy2gY6rM5/f7bQtdE4E+HjAnB/NRAmOAtGBIsAI9sUi3/BJtogUars9pnqgncAXgrMOnvXkLAY5Loc60+e4GPgCnvsnqbYGE0HXtml18hQAHbGQYyHo3DmB/HT6eQCOgPih6w+OPcOuAjuNYFKYFfMVgY2JHPnPFh9gDscqn3ypP3lSwEsuo01axxBQvQfvW1DP5mEEdmkmG632PL+IxHAZ532MbyLoJLBV14TRWfDj5hTP/HqG3snC5DpdW9a9jXMBXvBs8epzyYhW7kAX23rMsQGTe+uhSsYB9EUVQAbhw0PEtxUtDxN0Rz4U4k6ID5Ta6y1lEcWsd+MecONWIASN08AuV4p/nZaw2yGKBnAV8JyTahpw5DRWvTk4JGi69VBq+41x8po6VB9hbxiKKLcth+rmtW6xGDIeVPDxAfyM3MQphllmpC5jbR7XahNUSF85EXstFHPqSy2JKniPrk//NmUWZAfR+D/siCp/j6RL0qziNDxGExnK6Jn2KV6VR+j1y2kf1J0OlFE6P6kZgQCjU/fSARifKax9ds01yGjPH1SJyGXBNunf+SfsoexuF73EKB3RiZW4McBhAPgKA1+qzR7p3Xk77aGTeNQrv04Xj3m2gcTjzJlTBKtU7H5Z1iH0LD+VMwi4cF4t4tCUnraF+qZ2B8OW3+hx7+2jQDbqZhBM4NgoIrh3JSdtHkKEChCoQztwlo310B+VMQhXXFXPAJLXAtWDGSiT7PVdktI/6PzpNOZPQmu/ScXLPoLgPeuHLhHg1QtHf5TOT73P7GO1MwnZVuNIvzCEz4CvIgr9zHpdcSrf7Jns9ZU6JZdQla4ARfOkXPiU2CuB0MHexpQR3DXkfPMpeTLn5xHnqWeyV5vLeNexGHqQVDE/UffTipA+EQ4+w+z3aL47Qz2JXD23DmX6hNXm9uHeBhMsS/pzcYr/4E+xjc/QXDzKkHpryX7UMdI2K8RLifD8t6q+KCIS9w3fmsF9+q+jXsDxG75YCfwCt46H3pT5fdlqsHxJFMTA48UEe++W3oiCVJf3Y+W0F6Ifi4oHfSavvvKMZu/YkrT2xQsby1e1sa1gmjFSCfmHWv4ACLrpIprw+grxrbAmXzsrQL3iQ+8VQyM+KdQXPP7eaLeXWs7sy9Au27QGfLkahneJBhxhnsat7jBaUQidyzyQK3q4I/ftzY9lqLxpaV1WMfqE1sGgSxxfzJ9//8EPGWewt3p+nHP2CJ7BpEoWd407/pmOsJQcff1BBUBLAGdDgA3l8yc85mc5YeVSp62hBWVSDmkZ1e/w5kr854UfWHVSjxs4TlMYkKLoVwvEQ/HqEdQeVynqWreL0C+5QyxiO3suJfPr1k3/nwNu95ioYARXAZXv4IZdRQj43L4QwSr9Ley/BOOgHts3q0laUnn72RRQNm3arYCT6Bdf+YJA7cE9prYGIu6yLKNR9x1QXjIcRYNsYMiSVbkhk3q5MxsvP3nm0rRHpl2ocRH67ckrj97CWGtr0/qyWYFwMcYE5YDi2Uq7fc4N5B1Wd91sLxoZnF4lcZ2D8bVn0f/1lLKvq79+9nmB8jB4gle498D17ttP/Z1a/Rz1hWGXBJBjbUCrfH/qAcWJoZPIeVr+nRpcqtqahX/CYLF3s+ONelrh3zh/hjJdfg3f71RRMBrdRFBVfSdRpX1/a3vlneHVmNcGEsP1QRVHwvLpwDU0MNOhmEavqf2eGe0XBpGgyVE3T8bC6IE/qIPgeOpXKaPg6vveBq2BqeLWla/qI3nM3nzz0Imj/0d2hiFH6/zW1qmAGeMWJrvoRRyUmZV8tIVISqd/6aNeBMNZq2koTh3iaA/2C7bjatAWwKGRZTO7RQzty9E/Pw8II/Z1fb1xPio9mXxymHvDhPMFMUOH9hrSvjbCI/BYvOx1/YVvKqVNFafGJsXF+WMbquNrNW9oKZoPKzR0Z3h09XR/4P2BZywNtxneqJZgTqvVRa4wIp+EOgpmh9UTjka/q6lZPMDs0amok8h07d2gimCO8JhrlFLQa2MhWME94TXZUnPwGg03p90ihsbPSUyVGvWUlmDM82quUJN/e2d1WMG+4jqmvGPk2PT+tJZg96o2YoBD99Se1FsoERvdvqITqnzzSUygj8Bjuwpt89YRh84SyA89u02y40t/CdCFPmXCYwvEubDZthJ1Q1uA5cjInhaj+aK6DUBZRuUPvZjwM3+azKgplFI3nfFLaq8C+azc7oezC1mtm59KwoEX/Xq5C2Yat15jxMu8CdR3nfmWd/KcssJrdpz67GKjaTXKvKZQT1Jo1c3wNFke52UfWnzpUFMoRbD26T/93fTqloOprPa5KBaHcwbby6HFD33MB4wXqd5wGT+1UtaZQXuFp5d5hav+69e1fYoOjqobT+KFzRzRqYiuUc9jaVasypMPMN4d27Tjt9Z49e7btMXFGl0ljZ7tVnecp/D/B0851XnUrKyuPNq41KwoWWGCBBRZYYIEFFlhggQUWWGCBGeC/7IKm5H197XwAAAAASUVORK5CYII=;" parent="1" vertex="1">
                    <mxGeometry x="82.5" y="417" width="107" height="107" as="geometry"/>
                </mxCell>
                <mxCell id="7" style="edgeStyle=none;html=1;endArrow=open;endFill=0;sourcePerimeterSpacing=20;targetPerimeterSpacing=10;strokeWidth=2;startArrow=open;startFill=0;" parent="1" source="4" target="3" edge="1">
                    <mxGeometry relative="1" as="geometry"/>
                </mxCell>
                <mxCell id="4" value="SupaBase" style="shape=image;verticalLabelPosition=bottom;labelBackgroundColor=default;verticalAlign=top;aspect=fixed;imageAspect=0;image=data:image/jpeg,/9j/4AAQSkZJRgABAQEAAAAAAAD/4QBCRXhpZgAATU0AKgAAAAgAAYdpAAQAAAABAAAAGgAAAAAAAkAAAAMAAAABAAAAAEABAAEAAAABAAAAAAAAAAAAAP/bAEMACwkJBwkJBwkJCQkLCQkJCQkJCwkLCwwLCwsMDRAMEQ4NDgwSGRIlGh0lHRkfHCkpFiU3NTYaKjI+LSkwGTshE//bAEMBBwgICwkLFQsLFSwdGR0sLCwsLCwsLCwsLCwsLCwsLCwsLCwsLCwsLCwsLCwsLCwsLCwsLCwsLCwsLCwsLCwsLP/AABEIAMgAyAMBIgACEQEDEQH/xAAfAAABBQEBAQEBAQAAAAAAAAAAAQIDBAUGBwgJCgv/xAC1EAACAQMDAgQDBQUEBAAAAX0BAgMABBEFEiExQQYTUWEHInEUMoGRoQgjQrHBFVLR8CQzYnKCCQoWFxgZGiUmJygpKjQ1Njc4OTpDREVGR0hJSlNUVVZXWFlaY2RlZmdoaWpzdHV2d3h5eoOEhYaHiImKkpOUlZaXmJmaoqOkpaanqKmqsrO0tba3uLm6wsPExcbHyMnK0tPU1dbX2Nna4eLj5OXm5+jp6vHy8/T19vf4+fr/xAAfAQADAQEBAQEBAQEBAAAAAAAAAQIDBAUGBwgJCgv/xAC1EQACAQIEBAMEBwUEBAABAncAAQIDEQQFITEGEkFRB2FxEyIygQgUQpGhscEJIzNS8BVictEKFiQ04SXxFxgZGiYnKCkqNTY3ODk6Q0RFRkdISUpTVFVWV1hZWmNkZWZnaGlqc3R1dnd4eXqCg4SFhoeIiYqSk5SVlpeYmZqio6Slpqeoqaqys7S1tre4ubrCw8TFxsfIycrS09TV1tfY2dri4+Tl5ufo6ery8/T19vf4+fr/2gAMAwEAAhEDEQA/APOKKKKACiiigAooooAKKKKACiiigAooooAKKKKACiiigAooooAKKKKACiiigAooooAKKKKACiiigAooooAKKKKACiiigAooooAKKKlt4JrmaG3gQvLKwRFHc+/sOpNFyXJRTk9kRUVp6ro9xpTWwlkjlWdXKtECAGTG5SG+o571mUlZ7Cp1I1I88HdMKKKKZYUUUUAFFFFABRRRQAUUUUAFFFFABRRRQAUUUUAFFFFABRRRQAUUUUAFd34b0f7FD9suFxd3C/KrDmGE9vZm6n2wPWsfw1pH2qUX9wn+jQN+6VhxNKO/uq/qcD1ruKynLoj5jN8df9xTfqzkvGX/ADCv+3v/ANkrka67xl/zCv8At7/9krkauGx6eVf7rEKKKKo9QKKKKACiiigAooooAKKKKACiiigAooooAKKKKACiiigAooooAK0NK02bU7tIEysa/PcSAfcjz/M9B/8AWqnDFLPLFDEheSVgiKvVmNekaTpsWmWiQLhpW+e4kA+/J7f7I6D/AOvUSlZHl5jjVhqdl8T2LkMMMEUUEKBIolCIo6KBT6KKwPiHJybberOS8Zf8wr/t7/8AZK5Guu8Zf8wr/t7/APZK5GuiGx9vlX+6xCiiiqPUCiiigAooooAKKKKACiiigAooooAKKKKACiiigAooooAKKK6Dw5o/22YXdwubS3b5Qw4mlX5gvuB1P5Um0ldmGIrxoU3OXQ1/DOkfZohf3C/6ROv7lWHMUR7+zN+g+tdJRRXO227s+BxGIliKjnL/AIYKKKKRznJeMv8AmFf9vf8A7JXI113jL/mFf9vf/slcjXRDY+5yr/dYhRRRVHqBRRRQAUUUUAFFFFABRRRQAUUUUAFFFFABRRRQAUUU+OOSWSOKNS8kjBERRyzE7QKBSkoq7LWmafNqV3HbR5Cn55pMZEcYPLfXsB3Nek28ENrBDbwKFiiUIgHp6n1J6k+pqlo2lx6XaCPg3EmJLmQfxN/dB9F6D8T3rSrCUrs+JzLGvE1OWL91fiFFFFQeSFFFFAHO+JrJrz+z9sip5f2jO4E5zs/u/SudGhyn/l4j/wC+H/xrsNX/AOXX/tr/AErOUVopNI9zC4yrTpKMXojDGgTH/l5j/wC/b/408eHZj/y9R/8Aft/8a31WpkWjmZo8yrrqc6PDNwf+XuL/AL9v/jTx4VuD/wAvkX/ft/8AGumRanUUczMnmmI7nKjwlcn/AJfYf+/Un+ND+EL0IxjvLd3AyFKOm723c116ipRwKXOzP+1sTfc8oljlhkkilQpJExSRGHKsOoplaOt3EFzquoTQEGNpERWXo2xQhYfUg1nVstUfY0ZucFJ6NrYKKKKZqFFFFABRRRQAUUUUAFdp4Y0jyUGpXC/vZV/0ZSOY4z/GR6t29B9a5vRbaG71SxgmwYmcu6nowRS+38SK9LGOnGAMADtWc3bQ+eznFumlRj13CiiisT5MKKKKACiiigDM1Uf8e3/bT+lUVWtHUx/x7f8AbT+lUlAqlsdtN2gh6LUygUxRUqiglseoqZRTFFSqKTdjFseornvE2r/Z4jp9u37+Zf8ASHU8xRH+H/eb9B9a09V1KLS7R5jhpnzHbRk/efHU/wCyOp/LvXnMsss0kk0rl5JWLu7dWY9TVwjfVntZVgfay9rNaLYZRRRWx9cFFFFABRRRQAUUUUAFFFFAEkMssEsU0TlJImEiMvVWFdNH4xnCAS2MTuB8zJK6Bvfbg/zrlaKTinuctfCUsRb2ivY63/hMm/6By/8AgQf/AImj/hMm/wCgcv8A4EH/AOJrkqKnkRzf2Xhf5Trf+Eyb/oHL/wCBB/8AiaP+Eyb/AKBy/wDgQf8A4muSoo5EH9l4X+U63/hMm/6By/8AgQf/AImj/hMm/wCgcv8A4EH/AOJrkqKORB/ZWF/lO0ttZOr7824h+z46Sb93mZ9hjGP1q6ornvDnP2//ALYf+z10aioaSdkfO42lGjVcIKyQ9RUyio1FSqKk89kiilklht4ZZ5nCRRKXdj2A/rSqK4zxFq32uU2Vu3+jQN+8ZTxNKM/mF6D1OTQldnTg8LLE1FFbLdmbqeozaldSTvlUHyQRk/6uPPA+p6k+tUaKK3SsfcU6cacVCKskFFFFM0CiiigAooooAKKKKACiiigAooooAKKKKACiiigAooooA6Hw3/zEP+3f/wBnrpFFc54a/wCYh/27/wDs9dKorGW58dmX+8SHqKlUUxRVfUb+HTrV535c/JDHnl5Ow+g6n2qTzYQlUkoRV2yh4h1b7JCbOBv9JnX94ynmGI/yZug9ufSuKqSaaW4llnmYvJKxd2Pcn+ntUdbRVkfbYPCxw1NRW73YUUUVR2hRRRQAUUUUAFFFFABRRRQAUUUUAFFFFABRRRQAUUUUAFFFFAHR+GP+Yh/27/8As9dMormvC/8AzEP+3f8A9nrp1FYy3PjMy/3iQrSRwxySyMFjjUu7MeFUdTXBapqMmo3TSnIhT5LdCfupnqf9o9T+XatHxDqnnubGBv3MTfv2U8SSD+H/AHV/U/Sufqoxtqz18rwXs4+1mtXt5BRRRWh7gUUUUAFFFFABRRRQAUUUUAFFFFABRRRQAUUUUAFFFFABRRRQAUUUUAdL4W/5iP8A27/+z1e1zVPsUH2eFv8ASp16g8xRn5S31PQfia5zTNUl01pykSSrMqBgxK4ZM4OV+p4qpPPNcTSzzMWklbcx/kB6AdAKz5bu54ssC6mKdWfw9CKiiitD2gooooAKKKKACiiigAooooAKKKKACiiigAooooAKKKKACiiigAooooAKKKKACiiigAooooAKKKKACiiigAooooAKKKKACiiigAooooAKKKKACiiigAooooAKKKKACiiigAooooAKKKKACiiigAooooAKKKKACiiigAooooA//9k=;" parent="1" vertex="1">
                    <mxGeometry x="93" y="252" width="86" height="86" as="geometry"/>
                </mxCell>
                <mxCell id="6" style="html=1;entryX=1;entryY=0.25;entryDx=0;entryDy=0;dashed=1;endArrow=none;endFill=0;fillColor=#ffe6cc;strokeColor=#d79b00;" parent="1" source="5" target="4" edge="1">
                    <mxGeometry relative="1" as="geometry"/>
                </mxCell>
                <mxCell id="5" value="Using Supabase's provided cloud service for production" style="shape=note;strokeWidth=2;fontSize=14;size=18;whiteSpace=wrap;html=1;fillColor=#fff2cc;strokeColor=#d6b656;fontColor=#666600;spacingRight=8;spacingLeft=8;" parent="1" vertex="1">
                    <mxGeometry x="218" y="272" width="214" height="54" as="geometry"/>
                </mxCell>
            </root>
        </mxGraphModel>
    </diagram>
</mxfile>